<svg viewBox="0 0 131 44" fill="none" xmlns="http://www.w3.org/2000/svg"><defs></defs><path d="M0 14.074h9.171l4.537 14.786h.094l4.537-14.766h9.178L19.326 37.92H7.749L0 14.074zM28.818 14.047l10.48-.043V37.9h-10.48V14.048z" fill="#fff"></path><path d="M74.67.463h10.48v37.436H74.67V.463z" fill="#139DFF"></path><path d="M28.818.463l12.044 5.104-12.044 5.104V.463z" fill="#fff"></path><path d="M130.877 38.198l-7.262-7.268c1.584-3.02 2.238-6.927 2.238-11.655C125.843 6.248 118.796 0 106.792 0c-12.493 0-19.02 6.248-19.02 19.275 0 13.423 6.01 19.275 19.02 19.275 4.641 0 8.262-.694 11.044-2.05l7.497 7.5 5.544-5.802zM97.758 19.275c0-5.933 3.484-9.302 9.034-9.302 5.551 0 9.091 3.356 9.034 9.302-.05 6.403-3.564 9.248-9.034 9.306-5.587.073-9.034-3.373-9.034-9.306z" fill="#139DFF"></path><path d="M61.578.463V16h-.15c-1.679-2.014-4.4-2.775-7.853-2.775-7.81 0-12.24 4.792-12.24 12.788 0 8.171 3.837 12.688 12.417 12.688 3.279 0 6.81-1.007 8.185-3.124h.104v2.322h8.698V.463h-9.16zm-5.94 30.289c-2.574.04-4.16-1.735-4.16-4.79 0-3.053 1.603-4.784 4.16-4.784 2.557 0 4.188 1.735 4.162 4.785-.027 3.295-1.642 4.752-4.162 4.788z" fill="#fff"></path></svg>